HIERARCHY
ROOT Pelvis
{
	OFFSET 0.000000 0.000000 0.000000
	CHANNELS 6 Xposition Yposition Zposition Xrotation Yrotation Zrotation
	JOINT LeftUpLeg_virtual
	{
		OFFSET 0.000000 0.000000 0.000000
		CHANNELS 3 Xrotation Yrotation Zrotation
		JOINT LeftUpLeg
		{
			OFFSET 18.735201 -5.666702 -4.541200
			CHANNELS 3 Xrotation Yrotation Zrotation
			JOINT LeftLeg
			{
				OFFSET -0.021200 -31.938179 0.493100
				CHANNELS 3 Xrotation Yrotation Zrotation
				JOINT LeftFoot
				{
					OFFSET 0.021200 -31.938179 -4.336299
					CHANNELS 3 Xrotation Yrotation Zrotation
					JOINT LeftToeBase
					{
						OFFSET 0.943001 -26.722000 15.023500
						CHANNELS 3 Xrotation Yrotation Zrotation
						End Site
						{
							OFFSET 0 0 0
						}
					}
				}
			}
		}
	}
	JOINT RightUpLeg_virtual
	{
		OFFSET 0.000000 0.000000 0.000000
		CHANNELS 3 Xrotation Yrotation Zrotation
		JOINT RightUpLeg
		{
			OFFSET -18.735201 -5.666702 -4.541200
			CHANNELS 3 Xrotation Yrotation Zrotation
			JOINT RightLeg
			{
				OFFSET 0.018946 -31.938133 0.493100
				CHANNELS 3 Xrotation Yrotation Zrotation
				JOINT RightFoot
				{
					OFFSET -0.018946 -31.938126 -4.336299
					CHANNELS 3 Xrotation Yrotation Zrotation
					JOINT RightToeBase
					{
						OFFSET -0.943001 -26.722004 15.023500
						CHANNELS 3 Xrotation Yrotation Zrotation
						End Site
						{
							OFFSET 0 0 0
						}
					}
				}
			}
		}
	}
	JOINT Hips_virtual
	{
		OFFSET 0.000000 0.000000 0.000000
		CHANNELS 3 Xrotation Yrotation Zrotation
		JOINT Hips
		{
			OFFSET -0.000000 -0.000000 -0.000000
			CHANNELS 3 Xrotation Yrotation Zrotation
			JOINT Spine
			{
				OFFSET 0.000000 10.199997 -0.299500
				CHANNELS 3 Xrotation Yrotation Zrotation
				JOINT Spine1
				{
					OFFSET 0.000000 11.900002 -1.516600
					CHANNELS 3 Xrotation Yrotation Zrotation
					JOINT Spine2
					{
						OFFSET 0.000000 13.600006 -2.842500
						CHANNELS 3 Xrotation Yrotation Zrotation
						JOINT Neck_virtual
						{
							OFFSET 0.000000 0.000000 0.000000
							CHANNELS 3 Xrotation Yrotation Zrotation
							JOINT Neck
							{
								OFFSET 0.000000 9.624100 -2.890100
								CHANNELS 3 Xrotation Yrotation Zrotation
								JOINT Head
								{
									OFFSET 0.000000 14.068802 -1.351900
									CHANNELS 3 Xrotation Yrotation Zrotation
									End Site
									{
										OFFSET 0 0 0
									}
								}
							}
						}
						JOINT LeftShoulder_virtual
						{
							OFFSET 0.000000 0.000000 0.000000
							CHANNELS 3 Xrotation Yrotation Zrotation
							JOINT LeftShoulder
							{
								OFFSET 15.263000 10.923401 -0.547700
								CHANNELS 3 Xrotation Yrotation Zrotation
								JOINT LeftArm
								{
									OFFSET 25.438599 -2.830597 -13.032500
									CHANNELS 3 Xrotation Yrotation Zrotation
									JOINT LeftForeArm
									{
										OFFSET 29.960503 0.000000 0.000000
										CHANNELS 3 Xrotation Yrotation Zrotation
										JOINT LeftHand
										{
											OFFSET 27.849251 0.000000 0.000000
											CHANNELS 3 Xrotation Yrotation Zrotation
											End Site
											{
												OFFSET 0 0 0
											}
										}
									}
								}
							}
						}
						JOINT RightShoulder_virtual
						{
							OFFSET 0.000000 0.000000 0.000000
							CHANNELS 3 Xrotation Yrotation Zrotation
							JOINT RightShoulder
							{
								OFFSET -15.263000 10.923401 -0.547700
								CHANNELS 3 Xrotation Yrotation Zrotation
								JOINT RightArm
								{
									OFFSET -25.438599 -2.830597 -13.032500
									CHANNELS 3 Xrotation Yrotation Zrotation
									JOINT RightForeArm
									{
										OFFSET -29.960503 0.000000 0.000000
										CHANNELS 3 Xrotation Yrotation Zrotation
										JOINT RightHand
										{
											OFFSET -27.849251 0.000000 0.000000
											CHANNELS 3 Xrotation Yrotation Zrotation
											End Site
											{
												OFFSET 0 0 0
											}
										}
									}
								}
							}
						}
					}
				}
			}
		}
	}
}
MOTION
Frames: 5
Frame Time: 0.03333333
-1.051281 73.665298 -46.754944 0.000000 0.000000 0.000000 16.430853 -76.698667 15.268278 -43.536056 -10.282314 28.959196 79.569177 10.741284 0.598363 -23.340882 8.357266 -33.925143 0.000000 0.000000 0.000000 16.430853 -76.698667 15.268278 -56.829933 1.907462 -17.859637 86.150993 21.439438 -5.061781 -33.210770 -2.164641 5.496568 0.000000 0.000000 0.000000 16.430853 -76.698667 15.268278 0.000000 -0.000001 0.000000 4.443795 9.377075 -3.033990 9.594759 18.344802 -7.012218 0.000000 0.000000 0.000000 9.594760 18.344792 -7.012211 0.550278 0.503879 0.193042 0.000000 0.000000 0.000000 9.594760 18.344792 -7.012211 4.442670 -4.896766 0.391714 -74.044838 -32.200879 -59.779557 45.629967 -71.166425 44.297366 0.000000 0.000000 0.000000 9.594760 18.344792 -7.012211 3.889430 8.333843 -7.261187 -42.000233 -3.203195 27.938517 -12.789887 47.794932 2.424343 0.000000 0.000000 0.000000 
-0.675575 72.924927 -47.177780 0.000000 0.000000 0.000000 23.776268 -75.414646 22.045545 -47.484312 -11.323918 29.864835 80.666105 9.403653 0.360043 -22.896722 7.905155 -33.417377 0.000000 0.000000 0.000000 23.776268 -75.414646 22.045545 -59.751458 2.199488 -17.402323 87.159757 20.587705 -4.535657 -33.397675 -2.170437 5.541688 0.000000 0.000000 0.000000 23.776268 -75.414646 22.045545 0.000000 0.000000 0.000000 4.550713 9.210145 -3.116131 9.805974 18.007208 -7.165118 0.000000 0.000000 0.000000 9.805971 18.007232 -7.165124 0.393328 0.894648 0.269449 0.000000 0.000000 0.000000 9.805971 18.007232 -7.165124 4.342711 -4.985471 -0.341766 -66.423275 -29.193212 -56.580508 44.445472 -70.007438 43.935803 0.000000 0.000000 0.000000 9.805971 18.007232 -7.165124 3.540738 8.113210 -5.624214 -39.216084 -4.972973 28.094469 -12.221754 46.311483 3.788308 0.000000 0.000000 0.000000 
-0.261089 72.317520 -47.533592 0.000000 0.000000 0.000000 29.761603 -73.880681 27.624186 -51.352251 -12.209589 30.307482 81.350230 8.313602 0.110109 -22.169315 7.404174 -32.807956 0.000000 0.000000 0.000000 29.761603 -73.880681 27.624186 -62.530744 2.651722 -17.068277 87.937190 19.649609 -4.127129 -33.473026 -2.304941 5.820664 0.000000 0.000000 0.000000 29.761603 -73.880681 27.624186 0.000001 0.000001 -0.000000 4.657272 9.047282 -3.179322 10.016252 17.679738 -7.291494 0.000000 0.000000 0.000000 10.016239 17.679760 -7.291500 0.242815 1.290105 0.337314 0.000000 0.000000 0.000000 10.016239 17.679760 -7.291500 4.231865 -4.936955 -0.833280 -58.521389 -25.699400 -53.642653 41.104516 -69.046471 41.375824 0.000000 0.000000 0.000000 10.016239 17.679760 -7.291500 3.219527 7.942034 -3.888784 -35.652358 -7.358678 27.766293 -11.633919 45.311434 5.140173 0.000000 0.000000 0.000000 
0.168915 71.857918 -47.825882 0.000000 0.000000 0.000000 34.311005 -72.224182 31.955071 -54.962327 -12.826737 30.256372 81.622912 7.530249 -0.087376 -21.277006 6.918168 -32.110625 0.000000 0.000000 0.000000 34.311005 -72.224182 31.955071 -65.047416 3.278908 -16.853333 88.499526 18.632444 -3.832996 -33.463037 -2.509135 6.309385 0.000000 0.000000 0.000000 34.311005 -72.224182 31.955071 -0.000001 0.000000 0.000000 4.770337 8.890901 -3.216303 10.238196 17.364530 -7.376334 0.000000 0.000000 0.000000 10.238195 17.364547 -7.376346 0.096390 1.678231 0.394507 0.000000 0.000000 0.000000 10.238195 17.364547 -7.376346 4.107736 -4.811333 -1.179669 -50.713031 -21.636936 -51.563174 36.144487 -68.037611 36.990215 0.000000 0.000000 0.000000 10.238195 17.364547 -7.376346 2.932182 7.881681 -2.048415 -31.285825 -10.550635 27.298306 -11.071061 45.033353 6.402674 0.000000 0.000000 0.000000 
0.580534 71.544846 -48.046677 0.000000 0.000000 0.000000 37.559774 -70.577574 35.161554 -58.124445 -13.135672 29.791267 81.509975 7.052594 -0.179376 -20.318298 6.490552 -31.455374 0.000000 0.000000 0.000000 37.559774 -70.577574 35.161554 -67.155608 4.053719 -16.742235 88.851534 17.571461 -3.638273 -33.449748 -2.739187 6.961081 0.000000 0.000000 0.000000 37.559774 -70.577574 35.161554 0.000001 -0.000001 0.000000 4.888544 8.740012 -3.216918 10.467512 17.058184 -7.399224 0.000000 0.000000 0.000000 10.467518 17.058177 -7.399228 -0.048788 2.047765 0.442065 0.000000 0.000000 0.000000 10.467518 17.058177 -7.399228 3.963826 -4.635895 -1.485581 -43.366691 -17.194685 -50.718683 30.223731 -66.614138 31.337290 0.000000 0.000000 0.000000 10.467518 17.058177 -7.399228 2.670365 7.955734 -0.110399 -26.274254 -14.550859 27.245756 -10.625641 45.470277 7.582555 0.000000 0.000000 0.000000 
